<svg xmlns="http://www.w3.org/2000/svg" viewBox="0 0 960 620" role="img" aria-labelledby="title desc">
  <title id="title">Fit Match connection network</title>
  <desc id="desc">A calm premium network linking clients and fitness professionals around Fit Match.</desc>
  <defs>
    <radialGradient id="bg" cx="50%" cy="42%" r="82%">
      <stop offset="0" stop-color="#fbfaf5"/>
      <stop offset="0.62" stop-color="#f1f5ec"/>
      <stop offset="1" stop-color="#e8eee5"/>
    </radialGradient>
    <linearGradient id="green" x1="0" y1="0" x2="1" y2="1">
      <stop offset="0" stop-color="#2b8069"/>
      <stop offset="0.58" stop-color="#1f6f5b"/>
      <stop offset="1" stop-color="#153d34"/>
    </linearGradient>
    <linearGradient id="coral" x1="0" y1="0" x2="1" y2="1">
      <stop offset="0" stop-color="#f08d82"/>
      <stop offset="1" stop-color="#d9584a"/>
    </linearGradient>
    <linearGradient id="ink" x1="0" y1="0" x2="1" y2="1">
      <stop offset="0" stop-color="#243d35"/>
      <stop offset="1" stop-color="#10201b"/>
    </linearGradient>
    <filter id="softShadow" x="-30%" y="-30%" width="160%" height="160%">
      <feDropShadow dx="0" dy="20" stdDeviation="18" flood-color="#1b2c25" flood-opacity="0.18"/>
    </filter>
    <pattern id="grain" width="36" height="36" patternUnits="userSpaceOnUse">
      <circle cx="5" cy="5" r="1" fill="#1f6f5b" opacity="0.13"/>
      <circle cx="25" cy="19" r="0.8" fill="#d9584a" opacity="0.10"/>
    </pattern>
  </defs>

  <rect width="960" height="620" rx="38" fill="url(#bg)"/>
  <rect x="22" y="22" width="916" height="576" rx="30" fill="url(#grain)" opacity="0.38"/>
  <path d="M142 384C232 120 650 96 814 278" fill="none" stroke="#73927f" stroke-width="5" stroke-linecap="round" opacity="0.54"/>
  <path d="M132 424C280 560 610 548 822 368" fill="none" stroke="#d9584a" stroke-width="3" stroke-linecap="round" stroke-dasharray="12 15" opacity="0.42"/>
  <path d="M256 208C388 290 574 286 704 204" fill="none" stroke="#1f6f5b" stroke-width="3" stroke-dasharray="9 16" stroke-linecap="round" opacity="0.38"/>

  <g filter="url(#softShadow)">
    <circle cx="480" cy="318" r="96" fill="#fffefa" stroke="#dfe8dc" stroke-width="2"/>
    <path d="M386 360V260h116l-24 28h-55v29h43l-25 27h-18v16z" fill="url(#ink)"/>
    <path d="M514 360V273l45 45 82-96v138h-34v-68l-48 57-29-29v40z" fill="url(#green)"/>
    <circle cx="492" cy="252" r="15" fill="url(#coral)"/>
  </g>

  <g filter="url(#softShadow)">
    <g transform="translate(176 368)">
      <circle r="50" fill="#fffefa" stroke="#d9e5d5" stroke-width="2"/>
      <path d="M-17 -5a17 17 0 1 1 34 0a17 17 0 0 1-34 0Zm-28 43c8-21 25-32 45-32s37 11 45 32" fill="none" stroke="#1f6f5b" stroke-width="6" stroke-linecap="round"/>
      <text y="82" text-anchor="middle" font-family="Inter, Arial" font-size="17" font-weight="900" letter-spacing="4" fill="#365f52">CLIENTE</text>
    </g>
    <g transform="translate(798 292)">
      <circle r="50" fill="#fffefa" stroke="#d9e5d5" stroke-width="2"/>
      <path d="M-26 17h52M-18 -2h36M-8 -21h16" stroke="#1f6f5b" stroke-width="6" stroke-linecap="round"/>
      <text y="82" text-anchor="middle" font-family="Inter, Arial" font-size="17" font-weight="900" letter-spacing="4" fill="#365f52">PRO</text>
    </g>
    <g transform="translate(300 498)">
      <circle r="44" fill="#fffefa" stroke="#d9e5d5" stroke-width="2"/>
      <path d="M-22 12C-5-26 27-18 27-18S28 14-13 25" fill="none" stroke="#1f6f5b" stroke-width="6" stroke-linecap="round"/>
      <path d="M-20 24L24-20" stroke="#d9584a" stroke-width="5" stroke-linecap="round"/>
      <text y="72" text-anchor="middle" font-family="Inter, Arial" font-size="15" font-weight="900" letter-spacing="4" fill="#365f52">NUTRI</text>
    </g>
    <g transform="translate(676 500)">
      <circle r="44" fill="#fffefa" stroke="#d9e5d5" stroke-width="2"/>
      <path d="M-13 -25c18 10 18 40 0 50M13 -25c-18 10-18 40 0 50" fill="none" stroke="#1f6f5b" stroke-width="5" stroke-linecap="round"/>
      <path d="M0 -24v48M-9 -10h18M-9 8h18" stroke="#d9584a" stroke-width="6" stroke-linecap="round"/>
      <text y="72" text-anchor="middle" font-family="Inter, Arial" font-size="15" font-weight="900" letter-spacing="4" fill="#365f52">FISIO</text>
    </g>
  </g>

  <text x="480" y="568" text-anchor="middle" font-family="Inter, Arial" font-size="22" font-weight="900" letter-spacing="12" fill="#10201b">ENCUENTRA · CONECTA · EVOLUCIONA</text>
</svg>
