<svg xmlns="http://www.w3.org/2000/svg" viewBox="0 0 980 300" role="img" aria-labelledby="title desc">
  <title id="title">Resultados de matching Fit Match</title>
  <desc id="desc">Ilustración de tarjetas de matches ordenadas por afinidad, con foto, porcentaje y razones.</desc>
  <defs>
    <linearGradient id="bg" x1="0" y1="0" x2="1" y2="1"><stop offset="0" stop-color="#fffaf0"/><stop offset="1" stop-color="#edf5ec"/></linearGradient>
    <filter id="s" x="-20%" y="-40%" width="140%" height="180%"><feDropShadow dx="0" dy="14" stdDeviation="13" flood-color="#0f2e2b" flood-opacity="0.11"/></filter>
  </defs>
  <rect width="980" height="300" rx="28" fill="url(#bg)"/>
  <g opacity="0.22" fill="none" stroke-linecap="round">
    <path d="M112 214C238 110 338 112 470 178S693 238 854 112" stroke="#0f2e2b" stroke-width="4"/>
    <path d="M118 99C254 156 398 222 545 150S718 75 862 146" stroke="#ff7a6a" stroke-width="4" stroke-dasharray="11 13"/>
  </g>
  <g filter="url(#s)" font-family="Inter, Arial, sans-serif">
    <g transform="translate(90 64)">
      <rect width="236" height="168" rx="28" fill="#fffdf7" stroke="#dbe7dd"/>
      <circle cx="52" cy="58" r="31" fill="#143d33"/>
      <path d="M34 67c9-26 37-26 46 0" fill="none" stroke="#fffaf0" stroke-width="5" stroke-linecap="round"/>
      <circle cx="57" cy="48" r="11" fill="none" stroke="#fffaf0" stroke-width="5"/>
      <text x="101" y="59" font-size="39" font-weight="900" fill="#0f2e2b">94%</text>
      <text x="34" y="116" font-size="13" font-weight="900" fill="#66766d">Objetivo alineado</text>
      <text x="34" y="140" font-size="13" font-weight="900" fill="#66766d">Ciudad compatible</text>
    </g>
    <g transform="translate(372 44)">
      <rect width="236" height="188" rx="28" fill="#fffdf7" stroke="#bdd5c5"/>
      <circle cx="52" cy="64" r="34" fill="#2f8a6f"/>
      <path d="M33 74c10-29 40-29 50 0" fill="none" stroke="#fffaf0" stroke-width="5" stroke-linecap="round"/>
      <circle cx="59" cy="52" r="12" fill="none" stroke="#fffaf0" stroke-width="5"/>
      <text x="101" y="66" font-size="43" font-weight="900" fill="#0f2e2b">97%</text>
      <rect x="36" y="112" width="74" height="12" rx="6" fill="#2f8a6f" opacity="0.72"/>
      <rect x="36" y="140" width="150" height="10" rx="5" fill="#dbe7dd"/>
      <rect x="36" y="162" width="118" height="10" rx="5" fill="#dbe7dd"/>
    </g>
    <g transform="translate(654 64)">
      <rect width="236" height="168" rx="28" fill="#fffdf7" stroke="#dbe7dd"/>
      <circle cx="52" cy="58" r="31" fill="#fff6f1" stroke="#ffb6ad"/>
      <path d="M38 62h28M43 54v16M61 54v16" stroke="#0f2e2b" stroke-width="4" stroke-linecap="round"/>
      <text x="101" y="59" font-size="39" font-weight="900" fill="#0f2e2b">88%</text>
      <text x="34" y="116" font-size="13" font-weight="900" fill="#66766d">Modalidad incluida</text>
      <text x="34" y="140" font-size="13" font-weight="900" fill="#66766d">Nivel adecuado</text>
    </g>
  </g>
  <circle cx="490" cy="246" r="8" fill="#ff7a6a"/><circle cx="770" cy="242" r="7" fill="#8faa90"/><circle cx="220" cy="246" r="7" fill="#0f2e2b"/>
</svg>
