<svg xmlns="http://www.w3.org/2000/svg" viewBox="0 0 640 360" role="img" aria-labelledby="title desc">
  <title id="title">Fit Match calm connection pattern</title>
  <desc id="desc">A calm minimal network of people and affinity points.</desc>
  <defs>
    <radialGradient id="bg" cx="50%" cy="50%" r="78%">
      <stop offset="0" stop-color="#fffefa"/>
      <stop offset="0.68" stop-color="#f2f6ee"/>
      <stop offset="1" stop-color="#e8eee5"/>
    </radialGradient>
    <filter id="shadow" x="-40%" y="-40%" width="180%" height="180%">
      <feDropShadow dx="0" dy="16" stdDeviation="12" flood-color="#1b2c25" flood-opacity="0.16"/>
    </filter>
  </defs>
  <rect width="640" height="360" rx="30" fill="url(#bg)"/>
  <path d="M70 192C158 70 305 88 386 158s128 75 185-10" fill="none" stroke="#73927f" stroke-width="4" stroke-linecap="round" opacity="0.58"/>
  <path d="M94 252c104 62 192 40 278-28s154-72 210-10" fill="none" stroke="#d9584a" stroke-width="3" stroke-dasharray="9 13" stroke-linecap="round" opacity="0.42"/>
  <circle cx="112" cy="178" r="39" fill="#fffefa" stroke="#d9e5d5" stroke-width="2" filter="url(#shadow)"/>
  <circle cx="112" cy="178" r="15" fill="#1f6f5b"/>
  <circle cx="300" cy="116" r="33" fill="#fffefa" stroke="#d9e5d5" stroke-width="2" filter="url(#shadow)"/>
  <circle cx="300" cy="116" r="15" fill="#d9584a"/>
  <circle cx="444" cy="212" r="42" fill="#fffefa" stroke="#d9e5d5" stroke-width="2" filter="url(#shadow)"/>
  <circle cx="444" cy="212" r="20" fill="#1f6f5b"/>
  <circle cx="548" cy="126" r="34" fill="#fffefa" stroke="#d9e5d5" stroke-width="2" filter="url(#shadow)"/>
  <circle cx="548" cy="126" r="15" fill="#d9584a"/>
  <text x="320" y="286" text-anchor="middle" font-family="Inter, Arial" font-size="22" font-weight="900" letter-spacing="7" fill="#10201b">FIT MATCH</text>
  <text x="320" y="246" text-anchor="middle" font-family="Inter, Arial" font-size="30" font-weight="900" fill="#1f6f5b">87%</text>
</svg>
